<mxfile host="app.diagrams.net" modified="2024-03-13T07:05:40.763Z" agent="Mozilla/5.0 (Windows NT 10.0; Win64; x64) AppleWebKit/537.36 (KHTML, like Gecko) Chrome/122.0.0.0 Safari/537.36" etag="meX76-6pZe4OvMIZ1jEV" version="24.0.5" type="github">
  <diagram id="C5RBs43oDa-KdzZeNtuy" name="Page-1">
    <mxGraphModel dx="1195" dy="1812" grid="1" gridSize="10" guides="1" tooltips="1" connect="1" arrows="1" fold="1" page="1" pageScale="1" pageWidth="827" pageHeight="1169" math="0" shadow="0">
      <root>
        <mxCell id="WIyWlLk6GJQsqaUBKTNV-0" />
        <mxCell id="WIyWlLk6GJQsqaUBKTNV-1" parent="WIyWlLk6GJQsqaUBKTNV-0" />
        <mxCell id="WIyWlLk6GJQsqaUBKTNV-2" value="" style="rounded=0;html=1;jettySize=auto;orthogonalLoop=1;fontSize=11;endArrow=block;endFill=0;endSize=8;strokeWidth=1;shadow=0;labelBackgroundColor=none;edgeStyle=orthogonalEdgeStyle;entryX=0.5;entryY=0;entryDx=0;entryDy=0;" parent="WIyWlLk6GJQsqaUBKTNV-1" source="WIyWlLk6GJQsqaUBKTNV-3" target="xqWfMVQmARdI0U0uEww2-31" edge="1">
          <mxGeometry relative="1" as="geometry" />
        </mxCell>
        <mxCell id="WIyWlLk6GJQsqaUBKTNV-3" value="Start" style="rounded=1;whiteSpace=wrap;html=1;fontSize=12;glass=0;strokeWidth=1;shadow=0;" parent="WIyWlLk6GJQsqaUBKTNV-1" vertex="1">
          <mxGeometry x="160" y="20" width="120" height="40" as="geometry" />
        </mxCell>
        <mxCell id="xqWfMVQmARdI0U0uEww2-12" value="" style="edgeStyle=orthogonalEdgeStyle;rounded=0;orthogonalLoop=1;jettySize=auto;html=1;" edge="1" parent="WIyWlLk6GJQsqaUBKTNV-1" source="WIyWlLk6GJQsqaUBKTNV-6" target="xqWfMVQmARdI0U0uEww2-11">
          <mxGeometry relative="1" as="geometry" />
        </mxCell>
        <mxCell id="xqWfMVQmARdI0U0uEww2-19" value="No" style="edgeLabel;html=1;align=center;verticalAlign=middle;resizable=0;points=[];" vertex="1" connectable="0" parent="xqWfMVQmARdI0U0uEww2-12">
          <mxGeometry x="-0.0068" y="-2" relative="1" as="geometry">
            <mxPoint x="-5" y="-2" as="offset" />
          </mxGeometry>
        </mxCell>
        <mxCell id="xqWfMVQmARdI0U0uEww2-16" value="" style="edgeStyle=orthogonalEdgeStyle;rounded=0;orthogonalLoop=1;jettySize=auto;html=1;" edge="1" parent="WIyWlLk6GJQsqaUBKTNV-1" source="WIyWlLk6GJQsqaUBKTNV-6" target="xqWfMVQmARdI0U0uEww2-15">
          <mxGeometry relative="1" as="geometry" />
        </mxCell>
        <mxCell id="xqWfMVQmARdI0U0uEww2-18" value="Yes" style="edgeLabel;html=1;align=center;verticalAlign=middle;resizable=0;points=[];" vertex="1" connectable="0" parent="xqWfMVQmARdI0U0uEww2-16">
          <mxGeometry x="-0.2517" y="-1" relative="1" as="geometry">
            <mxPoint x="-4" y="1" as="offset" />
          </mxGeometry>
        </mxCell>
        <mxCell id="WIyWlLk6GJQsqaUBKTNV-6" value="user authorization check" style="rhombus;whiteSpace=wrap;html=1;shadow=0;fontFamily=Helvetica;fontSize=12;align=center;strokeWidth=1;spacing=6;spacingTop=-4;" parent="WIyWlLk6GJQsqaUBKTNV-1" vertex="1">
          <mxGeometry x="170" y="170" width="100" height="80" as="geometry" />
        </mxCell>
        <mxCell id="xqWfMVQmARdI0U0uEww2-21" value="" style="edgeStyle=orthogonalEdgeStyle;rounded=0;orthogonalLoop=1;jettySize=auto;html=1;" edge="1" parent="WIyWlLk6GJQsqaUBKTNV-1" source="xqWfMVQmARdI0U0uEww2-11" target="xqWfMVQmARdI0U0uEww2-22">
          <mxGeometry relative="1" as="geometry">
            <mxPoint x="560" y="210" as="targetPoint" />
          </mxGeometry>
        </mxCell>
        <mxCell id="xqWfMVQmARdI0U0uEww2-26" style="edgeStyle=orthogonalEdgeStyle;rounded=0;orthogonalLoop=1;jettySize=auto;html=1;" edge="1" parent="WIyWlLk6GJQsqaUBKTNV-1" source="xqWfMVQmARdI0U0uEww2-11" target="xqWfMVQmARdI0U0uEww2-25">
          <mxGeometry relative="1" as="geometry" />
        </mxCell>
        <mxCell id="xqWfMVQmARdI0U0uEww2-11" value="Offer to login or register" style="whiteSpace=wrap;html=1;shadow=0;strokeWidth=1;spacing=6;spacingTop=-4;" vertex="1" parent="WIyWlLk6GJQsqaUBKTNV-1">
          <mxGeometry x="340" y="180" width="120" height="60" as="geometry" />
        </mxCell>
        <mxCell id="xqWfMVQmARdI0U0uEww2-61" value="" style="edgeStyle=orthogonalEdgeStyle;rounded=0;orthogonalLoop=1;jettySize=auto;html=1;" edge="1" parent="WIyWlLk6GJQsqaUBKTNV-1" source="xqWfMVQmARdI0U0uEww2-15" target="xqWfMVQmARdI0U0uEww2-60">
          <mxGeometry relative="1" as="geometry" />
        </mxCell>
        <mxCell id="xqWfMVQmARdI0U0uEww2-15" value="Redirect to main windoow" style="whiteSpace=wrap;html=1;shadow=0;strokeWidth=1;spacing=6;spacingTop=-4;fillColor=#dae8fc;strokeColor=#6c8ebf;" vertex="1" parent="WIyWlLk6GJQsqaUBKTNV-1">
          <mxGeometry x="160" y="360" width="120" height="60" as="geometry" />
        </mxCell>
        <mxCell id="xqWfMVQmARdI0U0uEww2-24" value="" style="edgeStyle=orthogonalEdgeStyle;rounded=0;orthogonalLoop=1;jettySize=auto;html=1;" edge="1" parent="WIyWlLk6GJQsqaUBKTNV-1" source="xqWfMVQmARdI0U0uEww2-22" target="xqWfMVQmARdI0U0uEww2-23">
          <mxGeometry relative="1" as="geometry" />
        </mxCell>
        <mxCell id="xqWfMVQmARdI0U0uEww2-30" value="Yes" style="edgeLabel;html=1;align=center;verticalAlign=middle;resizable=0;points=[];" vertex="1" connectable="0" parent="xqWfMVQmARdI0U0uEww2-24">
          <mxGeometry x="-0.3228" y="-1" relative="1" as="geometry">
            <mxPoint x="5" y="-1" as="offset" />
          </mxGeometry>
        </mxCell>
        <mxCell id="xqWfMVQmARdI0U0uEww2-57" value="" style="edgeStyle=orthogonalEdgeStyle;rounded=0;orthogonalLoop=1;jettySize=auto;html=1;" edge="1" parent="WIyWlLk6GJQsqaUBKTNV-1" source="xqWfMVQmARdI0U0uEww2-22" target="xqWfMVQmARdI0U0uEww2-56">
          <mxGeometry relative="1" as="geometry">
            <Array as="points">
              <mxPoint x="590" y="330" />
            </Array>
          </mxGeometry>
        </mxCell>
        <mxCell id="xqWfMVQmARdI0U0uEww2-58" value="No" style="edgeLabel;html=1;align=center;verticalAlign=middle;resizable=0;points=[];" vertex="1" connectable="0" parent="xqWfMVQmARdI0U0uEww2-57">
          <mxGeometry x="-0.6738" y="-1" relative="1" as="geometry">
            <mxPoint as="offset" />
          </mxGeometry>
        </mxCell>
        <mxCell id="xqWfMVQmARdI0U0uEww2-22" value="User wants to login" style="rhombus;whiteSpace=wrap;html=1;" vertex="1" parent="WIyWlLk6GJQsqaUBKTNV-1">
          <mxGeometry x="520" y="142.5" width="140" height="135" as="geometry" />
        </mxCell>
        <mxCell id="xqWfMVQmARdI0U0uEww2-38" value="" style="edgeStyle=orthogonalEdgeStyle;rounded=0;orthogonalLoop=1;jettySize=auto;html=1;" edge="1" parent="WIyWlLk6GJQsqaUBKTNV-1" source="xqWfMVQmARdI0U0uEww2-23" target="xqWfMVQmARdI0U0uEww2-37">
          <mxGeometry relative="1" as="geometry" />
        </mxCell>
        <mxCell id="xqWfMVQmARdI0U0uEww2-23" value="Redirect to login" style="whiteSpace=wrap;html=1;" vertex="1" parent="WIyWlLk6GJQsqaUBKTNV-1">
          <mxGeometry x="705" y="180" width="120" height="60" as="geometry" />
        </mxCell>
        <mxCell id="xqWfMVQmARdI0U0uEww2-28" value="" style="edgeStyle=orthogonalEdgeStyle;rounded=0;orthogonalLoop=1;jettySize=auto;html=1;" edge="1" parent="WIyWlLk6GJQsqaUBKTNV-1" source="xqWfMVQmARdI0U0uEww2-25" target="xqWfMVQmARdI0U0uEww2-27">
          <mxGeometry relative="1" as="geometry" />
        </mxCell>
        <mxCell id="xqWfMVQmARdI0U0uEww2-29" value="Yes" style="edgeLabel;html=1;align=center;verticalAlign=middle;resizable=0;points=[];" vertex="1" connectable="0" parent="xqWfMVQmARdI0U0uEww2-28">
          <mxGeometry x="-0.2222" y="1" relative="1" as="geometry">
            <mxPoint as="offset" />
          </mxGeometry>
        </mxCell>
        <mxCell id="xqWfMVQmARdI0U0uEww2-33" value="" style="edgeStyle=orthogonalEdgeStyle;rounded=0;orthogonalLoop=1;jettySize=auto;html=1;" edge="1" parent="WIyWlLk6GJQsqaUBKTNV-1" source="xqWfMVQmARdI0U0uEww2-25" target="xqWfMVQmARdI0U0uEww2-31">
          <mxGeometry relative="1" as="geometry" />
        </mxCell>
        <mxCell id="xqWfMVQmARdI0U0uEww2-34" value="No" style="edgeLabel;html=1;align=center;verticalAlign=middle;resizable=0;points=[];" vertex="1" connectable="0" parent="xqWfMVQmARdI0U0uEww2-33">
          <mxGeometry x="-0.1549" relative="1" as="geometry">
            <mxPoint y="5" as="offset" />
          </mxGeometry>
        </mxCell>
        <mxCell id="xqWfMVQmARdI0U0uEww2-25" value="User wants to register" style="rhombus;whiteSpace=wrap;html=1;" vertex="1" parent="WIyWlLk6GJQsqaUBKTNV-1">
          <mxGeometry x="330" width="140" height="135" as="geometry" />
        </mxCell>
        <mxCell id="xqWfMVQmARdI0U0uEww2-36" value="" style="edgeStyle=orthogonalEdgeStyle;rounded=0;orthogonalLoop=1;jettySize=auto;html=1;" edge="1" parent="WIyWlLk6GJQsqaUBKTNV-1" source="xqWfMVQmARdI0U0uEww2-27" target="xqWfMVQmARdI0U0uEww2-35">
          <mxGeometry relative="1" as="geometry" />
        </mxCell>
        <mxCell id="xqWfMVQmARdI0U0uEww2-27" value="Redirect to register" style="whiteSpace=wrap;html=1;" vertex="1" parent="WIyWlLk6GJQsqaUBKTNV-1">
          <mxGeometry x="530" y="37.5" width="120" height="60" as="geometry" />
        </mxCell>
        <mxCell id="xqWfMVQmARdI0U0uEww2-32" style="edgeStyle=orthogonalEdgeStyle;rounded=0;orthogonalLoop=1;jettySize=auto;html=1;" edge="1" parent="WIyWlLk6GJQsqaUBKTNV-1" source="xqWfMVQmARdI0U0uEww2-31" target="WIyWlLk6GJQsqaUBKTNV-6">
          <mxGeometry relative="1" as="geometry" />
        </mxCell>
        <mxCell id="xqWfMVQmARdI0U0uEww2-31" value="Redirect to welcome window" style="rounded=0;whiteSpace=wrap;html=1;fillColor=#ffe6cc;strokeColor=#d79b00;" vertex="1" parent="WIyWlLk6GJQsqaUBKTNV-1">
          <mxGeometry x="160" y="90" width="120" height="60" as="geometry" />
        </mxCell>
        <mxCell id="xqWfMVQmARdI0U0uEww2-40" style="edgeStyle=orthogonalEdgeStyle;rounded=0;orthogonalLoop=1;jettySize=auto;html=1;entryX=0;entryY=0.5;entryDx=0;entryDy=0;" edge="1" parent="WIyWlLk6GJQsqaUBKTNV-1" source="xqWfMVQmARdI0U0uEww2-35" target="xqWfMVQmARdI0U0uEww2-39">
          <mxGeometry relative="1" as="geometry" />
        </mxCell>
        <mxCell id="xqWfMVQmARdI0U0uEww2-35" value="Input&amp;nbsp;&lt;br&gt;number phone&lt;div&gt;passoword&lt;/div&gt;&lt;div&gt;email&lt;/div&gt;" style="shape=parallelogram;perimeter=parallelogramPerimeter;whiteSpace=wrap;html=1;fixedSize=1;" vertex="1" parent="WIyWlLk6GJQsqaUBKTNV-1">
          <mxGeometry x="705" y="37.5" width="120" height="60" as="geometry" />
        </mxCell>
        <mxCell id="xqWfMVQmARdI0U0uEww2-42" style="edgeStyle=orthogonalEdgeStyle;rounded=0;orthogonalLoop=1;jettySize=auto;html=1;" edge="1" parent="WIyWlLk6GJQsqaUBKTNV-1" source="xqWfMVQmARdI0U0uEww2-37" target="xqWfMVQmARdI0U0uEww2-41">
          <mxGeometry relative="1" as="geometry" />
        </mxCell>
        <mxCell id="xqWfMVQmARdI0U0uEww2-37" value="Input&lt;br&gt;email&lt;br&gt;password" style="shape=parallelogram;perimeter=parallelogramPerimeter;whiteSpace=wrap;html=1;fixedSize=1;" vertex="1" parent="WIyWlLk6GJQsqaUBKTNV-1">
          <mxGeometry x="880" y="180" width="120" height="60" as="geometry" />
        </mxCell>
        <mxCell id="xqWfMVQmARdI0U0uEww2-45" style="edgeStyle=orthogonalEdgeStyle;rounded=0;orthogonalLoop=1;jettySize=auto;html=1;entryX=0.5;entryY=0;entryDx=0;entryDy=0;" edge="1" parent="WIyWlLk6GJQsqaUBKTNV-1" source="xqWfMVQmARdI0U0uEww2-39" target="xqWfMVQmARdI0U0uEww2-35">
          <mxGeometry relative="1" as="geometry">
            <Array as="points">
              <mxPoint x="935" y="-20" />
              <mxPoint x="765" y="-20" />
            </Array>
          </mxGeometry>
        </mxCell>
        <mxCell id="xqWfMVQmARdI0U0uEww2-46" value="No" style="edgeLabel;html=1;align=center;verticalAlign=middle;resizable=0;points=[];" vertex="1" connectable="0" parent="xqWfMVQmARdI0U0uEww2-45">
          <mxGeometry x="-0.2966" y="3" relative="1" as="geometry">
            <mxPoint x="56" y="17" as="offset" />
          </mxGeometry>
        </mxCell>
        <mxCell id="xqWfMVQmARdI0U0uEww2-54" style="edgeStyle=orthogonalEdgeStyle;rounded=0;orthogonalLoop=1;jettySize=auto;html=1;entryX=1;entryY=0.5;entryDx=0;entryDy=0;" edge="1" parent="WIyWlLk6GJQsqaUBKTNV-1" source="xqWfMVQmARdI0U0uEww2-39" target="xqWfMVQmARdI0U0uEww2-15">
          <mxGeometry relative="1" as="geometry">
            <Array as="points">
              <mxPoint x="1200" y="68" />
              <mxPoint x="1200" y="390" />
            </Array>
          </mxGeometry>
        </mxCell>
        <mxCell id="xqWfMVQmARdI0U0uEww2-55" value="Yes" style="edgeLabel;html=1;align=center;verticalAlign=middle;resizable=0;points=[];" vertex="1" connectable="0" parent="xqWfMVQmARdI0U0uEww2-54">
          <mxGeometry x="-0.9477" y="2" relative="1" as="geometry">
            <mxPoint x="-18" y="2" as="offset" />
          </mxGeometry>
        </mxCell>
        <mxCell id="xqWfMVQmARdI0U0uEww2-39" value="Correct data entered" style="rhombus;whiteSpace=wrap;html=1;" vertex="1" parent="WIyWlLk6GJQsqaUBKTNV-1">
          <mxGeometry x="880" y="17.5" width="110" height="100" as="geometry" />
        </mxCell>
        <mxCell id="xqWfMVQmARdI0U0uEww2-43" style="edgeStyle=orthogonalEdgeStyle;rounded=0;orthogonalLoop=1;jettySize=auto;html=1;entryX=0.5;entryY=0;entryDx=0;entryDy=0;" edge="1" parent="WIyWlLk6GJQsqaUBKTNV-1" source="xqWfMVQmARdI0U0uEww2-41" target="xqWfMVQmARdI0U0uEww2-37">
          <mxGeometry relative="1" as="geometry">
            <Array as="points">
              <mxPoint x="1105" y="130" />
              <mxPoint x="940" y="130" />
            </Array>
          </mxGeometry>
        </mxCell>
        <mxCell id="xqWfMVQmARdI0U0uEww2-44" value="No" style="edgeLabel;html=1;align=center;verticalAlign=middle;resizable=0;points=[];" vertex="1" connectable="0" parent="xqWfMVQmARdI0U0uEww2-43">
          <mxGeometry x="-0.0919" y="1" relative="1" as="geometry">
            <mxPoint x="81" y="12" as="offset" />
          </mxGeometry>
        </mxCell>
        <mxCell id="xqWfMVQmARdI0U0uEww2-47" style="edgeStyle=orthogonalEdgeStyle;rounded=0;orthogonalLoop=1;jettySize=auto;html=1;entryX=1;entryY=0.5;entryDx=0;entryDy=0;" edge="1" parent="WIyWlLk6GJQsqaUBKTNV-1" source="xqWfMVQmARdI0U0uEww2-41" target="xqWfMVQmARdI0U0uEww2-15">
          <mxGeometry relative="1" as="geometry">
            <Array as="points">
              <mxPoint x="1105" y="390" />
              <mxPoint x="280" y="390" />
            </Array>
          </mxGeometry>
        </mxCell>
        <mxCell id="xqWfMVQmARdI0U0uEww2-48" value="Yes" style="edgeLabel;html=1;align=center;verticalAlign=middle;resizable=0;points=[];" vertex="1" connectable="0" parent="xqWfMVQmARdI0U0uEww2-47">
          <mxGeometry x="-0.1801" y="-1" relative="1" as="geometry">
            <mxPoint x="262" y="-99" as="offset" />
          </mxGeometry>
        </mxCell>
        <mxCell id="xqWfMVQmARdI0U0uEww2-41" value="Correct data entered" style="rhombus;whiteSpace=wrap;html=1;" vertex="1" parent="WIyWlLk6GJQsqaUBKTNV-1">
          <mxGeometry x="1050" y="160" width="110" height="100" as="geometry" />
        </mxCell>
        <mxCell id="xqWfMVQmARdI0U0uEww2-59" style="edgeStyle=orthogonalEdgeStyle;rounded=0;orthogonalLoop=1;jettySize=auto;html=1;entryX=0.5;entryY=0;entryDx=0;entryDy=0;" edge="1" parent="WIyWlLk6GJQsqaUBKTNV-1" source="xqWfMVQmARdI0U0uEww2-56" target="xqWfMVQmARdI0U0uEww2-15">
          <mxGeometry relative="1" as="geometry" />
        </mxCell>
        <mxCell id="xqWfMVQmARdI0U0uEww2-56" value="Assigning incognito mode to the user" style="whiteSpace=wrap;html=1;" vertex="1" parent="WIyWlLk6GJQsqaUBKTNV-1">
          <mxGeometry x="340" y="277.5" width="120" height="60" as="geometry" />
        </mxCell>
        <mxCell id="xqWfMVQmARdI0U0uEww2-63" value="" style="edgeStyle=orthogonalEdgeStyle;rounded=0;orthogonalLoop=1;jettySize=auto;html=1;" edge="1" parent="WIyWlLk6GJQsqaUBKTNV-1" source="xqWfMVQmARdI0U0uEww2-60" target="xqWfMVQmARdI0U0uEww2-62">
          <mxGeometry relative="1" as="geometry" />
        </mxCell>
        <mxCell id="xqWfMVQmARdI0U0uEww2-60" value="Input file print" style="shape=parallelogram;perimeter=parallelogramPerimeter;whiteSpace=wrap;html=1;fixedSize=1;shadow=0;strokeWidth=1;spacing=6;spacingTop=-4;" vertex="1" parent="WIyWlLk6GJQsqaUBKTNV-1">
          <mxGeometry x="160" y="460" width="120" height="60" as="geometry" />
        </mxCell>
        <mxCell id="xqWfMVQmARdI0U0uEww2-72" value="" style="edgeStyle=orthogonalEdgeStyle;rounded=0;orthogonalLoop=1;jettySize=auto;html=1;" edge="1" parent="WIyWlLk6GJQsqaUBKTNV-1" source="xqWfMVQmARdI0U0uEww2-62" target="xqWfMVQmARdI0U0uEww2-71">
          <mxGeometry relative="1" as="geometry" />
        </mxCell>
        <mxCell id="xqWfMVQmARdI0U0uEww2-62" value="Operator assistance required" style="shape=parallelogram;perimeter=parallelogramPerimeter;whiteSpace=wrap;html=1;fixedSize=1;shadow=0;strokeWidth=1;spacing=6;spacingTop=-4;" vertex="1" parent="WIyWlLk6GJQsqaUBKTNV-1">
          <mxGeometry x="360" y="460" width="150" height="60" as="geometry" />
        </mxCell>
        <mxCell id="xqWfMVQmARdI0U0uEww2-69" value="Redirect to chat with operator" style="whiteSpace=wrap;html=1;shadow=0;strokeWidth=1;spacing=6;spacingTop=-4;" vertex="1" parent="WIyWlLk6GJQsqaUBKTNV-1">
          <mxGeometry x="1080" y="425" width="120" height="60" as="geometry" />
        </mxCell>
        <mxCell id="xqWfMVQmARdI0U0uEww2-70" value="Send print files to operator" style="whiteSpace=wrap;html=1;shadow=0;strokeWidth=1;spacing=6;spacingTop=-4;" vertex="1" parent="WIyWlLk6GJQsqaUBKTNV-1">
          <mxGeometry x="1080" y="495" width="120" height="60" as="geometry" />
        </mxCell>
        <mxCell id="xqWfMVQmARdI0U0uEww2-76" value="" style="edgeStyle=orthogonalEdgeStyle;rounded=0;orthogonalLoop=1;jettySize=auto;html=1;" edge="1" parent="WIyWlLk6GJQsqaUBKTNV-1" source="xqWfMVQmARdI0U0uEww2-71" target="xqWfMVQmARdI0U0uEww2-75">
          <mxGeometry relative="1" as="geometry" />
        </mxCell>
        <mxCell id="xqWfMVQmARdI0U0uEww2-71" value="Operator selection" style="rounded=0;whiteSpace=wrap;html=1;" vertex="1" parent="WIyWlLk6GJQsqaUBKTNV-1">
          <mxGeometry x="570" y="460" width="120" height="60" as="geometry" />
        </mxCell>
        <mxCell id="xqWfMVQmARdI0U0uEww2-77" value="" style="edgeStyle=orthogonalEdgeStyle;rounded=0;orthogonalLoop=1;jettySize=auto;html=1;" edge="1" parent="WIyWlLk6GJQsqaUBKTNV-1" source="xqWfMVQmARdI0U0uEww2-75" target="xqWfMVQmARdI0U0uEww2-70">
          <mxGeometry relative="1" as="geometry" />
        </mxCell>
        <mxCell id="xqWfMVQmARdI0U0uEww2-78" style="edgeStyle=orthogonalEdgeStyle;rounded=0;orthogonalLoop=1;jettySize=auto;html=1;" edge="1" parent="WIyWlLk6GJQsqaUBKTNV-1" source="xqWfMVQmARdI0U0uEww2-75" target="xqWfMVQmARdI0U0uEww2-69">
          <mxGeometry relative="1" as="geometry" />
        </mxCell>
        <mxCell id="xqWfMVQmARdI0U0uEww2-79" value="No" style="edgeLabel;html=1;align=center;verticalAlign=middle;resizable=0;points=[];" vertex="1" connectable="0" parent="xqWfMVQmARdI0U0uEww2-78">
          <mxGeometry x="-0.7714" y="1" relative="1" as="geometry">
            <mxPoint as="offset" />
          </mxGeometry>
        </mxCell>
        <mxCell id="xqWfMVQmARdI0U0uEww2-84" style="edgeStyle=orthogonalEdgeStyle;rounded=0;orthogonalLoop=1;jettySize=auto;html=1;entryX=1;entryY=0.5;entryDx=0;entryDy=0;" edge="1" parent="WIyWlLk6GJQsqaUBKTNV-1">
          <mxGeometry relative="1" as="geometry">
            <mxPoint x="833.5" y="565" as="sourcePoint" />
            <mxPoint x="541" y="615" as="targetPoint" />
            <Array as="points">
              <mxPoint x="834" y="615" />
            </Array>
          </mxGeometry>
        </mxCell>
        <mxCell id="xqWfMVQmARdI0U0uEww2-85" value="Yes" style="edgeLabel;html=1;align=center;verticalAlign=middle;resizable=0;points=[];" vertex="1" connectable="0" parent="xqWfMVQmARdI0U0uEww2-84">
          <mxGeometry x="-0.8462" y="-1" relative="1" as="geometry">
            <mxPoint y="-7" as="offset" />
          </mxGeometry>
        </mxCell>
        <mxCell id="xqWfMVQmARdI0U0uEww2-75" value="Selecting an operator&amp;nbsp;&lt;div&gt;takes a long time or assistance&amp;nbsp;&lt;/div&gt;&lt;div&gt;is no longer needed&lt;/div&gt;" style="rhombus;whiteSpace=wrap;html=1;" vertex="1" parent="WIyWlLk6GJQsqaUBKTNV-1">
          <mxGeometry x="740" y="415" width="185" height="150" as="geometry" />
        </mxCell>
        <mxCell id="xqWfMVQmARdI0U0uEww2-83" value="Send user to processing queue" style="rounded=0;whiteSpace=wrap;html=1;" vertex="1" parent="WIyWlLk6GJQsqaUBKTNV-1">
          <mxGeometry x="420" y="585" width="120" height="60" as="geometry" />
        </mxCell>
      </root>
    </mxGraphModel>
  </diagram>
</mxfile>
